<svg width="24" height="24" viewBox="0 0 24 24" fill="none" xmlns="http://www.w3.org/2000/svg">
<g clip-path="url(#clip0_112_610)">
<path d="M7 17C8.65685 17 10 15.6569 10 14C10 12.3431 8.65685 11 7 11C5.34315 11 4 12.3431 4 14C4 15.6569 5.34315 17 7 17Z" fill="#323232"/>
<path d="M11 9C12.6569 9 14 7.65685 14 6C14 4.34315 12.6569 3 11 3C9.34315 3 8 4.34315 8 6C8 7.65685 9.34315 9 11 9Z" fill="#323232"/>
<path d="M16.5996 20.6001C18.2565 20.6001 19.5996 19.257 19.5996 17.6001C19.5996 15.9432 18.2565 14.6001 16.5996 14.6001C14.9428 14.6001 13.5996 15.9432 13.5996 17.6001C13.5996 19.257 14.9428 20.6001 16.5996 20.6001Z" fill="#323232"/>
</g>
<defs>
<clipPath id="clip0_112_610">
<rect width="24" height="24" fill="white"/>
</clipPath>
</defs>
</svg>
