<svg width="32" height="33" viewBox="0 0 32 33" fill="none" xmlns="http://www.w3.org/2000/svg">
<g clip-path="url(#clip0_80_137)">
<rect y="0.956055" width="32" height="32" rx="16" fill="#F3F4F6"/>
<mask id="mask0_80_137" style="mask-type:alpha" maskUnits="userSpaceOnUse" x="0" y="0" width="32" height="33">
<circle cx="16" cy="16.9561" r="16" fill="#F3F4F6"/>
</mask>
<g mask="url(#mask0_80_137)">
<path d="M32 28.9479V32.9572H0V28.9626C1.86127 26.4752 4.27721 24.4563 7.05572 23.0666C9.83423 21.6769 12.8987 20.9546 16.0053 20.9572C22.544 20.9572 28.352 24.0959 32 28.9479ZM21.336 12.9559C21.336 14.3704 20.7741 15.7269 19.7739 16.7271C18.7737 17.7273 17.4172 18.2892 16.0027 18.2892C14.5882 18.2892 13.2316 17.7273 12.2314 16.7271C11.2312 15.7269 10.6693 14.3704 10.6693 12.9559C10.6693 11.5414 11.2312 10.1848 12.2314 9.18466C13.2316 8.18446 14.5882 7.62256 16.0027 7.62256C17.4172 7.62256 18.7737 8.18446 19.7739 9.18466C20.7741 10.1848 21.336 11.5414 21.336 12.9559Z" fill="#D1D5DB"/>
</g>
</g>
<defs>
<clipPath id="clip0_80_137">
<rect y="0.956055" width="32" height="32" rx="16" fill="white"/>
</clipPath>
</defs>
</svg>
