<svg width="24" height="24" viewBox="0 0 24 24" fill="none" xmlns="http://www.w3.org/2000/svg">
<g clip-path="url(#clip0_112_641)">
<path d="M9.41 6.58012L12 4.00012L20 12.0001L17.42 14.5901L18.83 16.0001L21.41 13.4101C22.19 12.6301 22.19 11.3601 21.41 10.5801L13.41 2.58012C12.63 1.80012 11.36 1.80012 10.58 2.58012L8 5.17012L9.41 6.58012Z" fill="#323232"/>
<path d="M2.80965 2.81006L1.38965 4.22006L5.16965 8.00006L2.58965 10.5901C1.80965 11.3701 1.80965 12.6401 2.58965 13.4201L10.5896 21.4201C11.3696 22.2001 12.6396 22.2001 13.4196 21.4201L15.9996 18.8301L19.7796 22.6101L21.1896 21.2001L2.80965 2.81006ZM11.9996 20.0001L3.99965 12.0001L6.57965 9.41006L8.16965 11.0001H6.99965V13.0001H10.1696L11.6696 14.5001L10.5896 15.5901L11.9996 17.0001L13.0896 15.9101L14.5896 17.4101L11.9996 20.0001Z" fill="#323232"/>
<path d="M12.0049 6.99847L10.916 8.0874L15.9152 13.0866L17.0041 11.9977L12.0049 6.99847Z" fill="#323232"/>
</g>
<defs>
<clipPath id="clip0_112_641">
<rect width="24" height="24" fill="white"/>
</clipPath>
</defs>
</svg>
