<svg width="24" height="24" viewBox="0 0 24 24" fill="none" xmlns="http://www.w3.org/2000/svg">
<g clip-path="url(#clip0_112_138)">
<path d="M12.0004 5.99986C15.8704 5.99986 19.0004 9.12986 19.0004 12.9999C19.0004 13.8399 18.8404 14.6499 18.5704 15.3999L20.0904 16.9199C20.6704 15.7299 21.0004 14.4099 21.0004 12.9999C21.0004 8.02986 16.9704 3.99986 12.0004 3.99986C10.5904 3.99986 9.27039 4.32986 8.08039 4.90986L9.60039 6.42986C10.3504 6.15986 11.1604 5.99986 12.0004 5.99986ZM22.0004 5.71986L17.4004 1.85986L16.1104 3.38986L20.7104 7.24986L22.0004 5.71986ZM2.92039 2.28986L1.65039 3.56986L2.98039 4.89986L1.87039 5.82986L3.29039 7.24986L4.40039 6.30986L5.20039 7.10986C3.83039 8.68986 3.00039 10.7499 3.00039 12.9999C3.00039 17.9699 7.02039 21.9999 12.0004 21.9999C14.2504 21.9999 16.3104 21.1699 17.8904 19.7999L20.0904 21.9999L21.3604 20.7299L3.89039 3.26986L2.92039 2.28986ZM16.4704 18.3899C15.2604 19.3899 13.7004 19.9999 12.0004 19.9999C8.13039 19.9999 5.00039 16.8699 5.00039 12.9999C5.00039 11.2999 5.61039 9.73986 6.61039 8.52986L16.4704 18.3899ZM8.02039 3.27986L6.60039 1.85986L5.74039 2.56986L7.16039 3.98986L8.02039 3.27986V3.27986Z" fill="#323232"/>
</g>
<defs>
<clipPath id="clip0_112_138">
<rect width="24" height="24" fill="white"/>
</clipPath>
</defs>
</svg>
